<svg id="full_logo" data-name="full logo" xmlns="http://www.w3.org/2000/svg" viewBox="0 0 153.54 47.7076"><path d="M22.54,22.56a4.3894,4.3894,0,0,0,1.08,1.72,2,2,0,0,0,1.18.58v.7c-1.44-.07-3.26-.11-5.47-.11-2.45,0-4.27,0-5.47.11v-.72a6.41,6.41,0,0,0,1.94-.28,1,1,0,0,0,.58-1,4.9015,4.9015,0,0,0-.43-1.72l-2.16-5.91H5.94L5,18.42a12.0576,12.0576,0,0,0-1,4,2.09,2.09,0,0,0,.79,1.87,5.1,5.1,0,0,0,2.41.58v.69c-1.63-.07-3.12-.11-4.46-.11A19.9165,19.9165,0,0,0,0,25.56v-.72q1.77-.28,3.1-3.78L11.3,0h2.49Zm-9-7.35L9.97,5.49l-3.74,9.7ZM48.35,4.41a4.8821,4.8821,0,0,0-1.77.54,1.92,1.92,0,0,0-.75,1.15,11.9161,11.9161,0,0,0-.18,2.42V25.63H43.71L29.34,7.74v13a7.7884,7.7884,0,0,0,.29,2.41,2,2,0,0,0,1,1.15,7.9977,7.9977,0,0,0,2.38.54v.72c-1.08-.07-2.45-.11-4.11-.11a24.8927,24.8927,0,0,0-3.13.11v-.72a4.4514,4.4514,0,0,0,1.77-.54,1.75,1.75,0,0,0,.76-1.15,10.17,10.17,0,0,0,.24-2.41V7.49a6.7014,6.7014,0,0,0-.21-2,1.2,1.2,0,0,0-.76-.83,6.2524,6.2524,0,0,0-1.73-.29V3.65c.77.07,1.81.11,3.13.11,1.71,0,3.17,0,4.4-.11L44.82,17.93V8.5a7.44,7.44,0,0,0-.28-2.38,2,2,0,0,0-1.08-1.19,7.7618,7.7618,0,0,0-2.34-.54V3.67c1.06.07,2.43.11,4.11.11a24.5568,24.5568,0,0,0,3.13-.11Zm13,0a6.37,6.37,0,0,0-1.76.29,1.31,1.31,0,0,0-.76.83,7.7579,7.7579,0,0,0-.18,2V21.74a7.6525,7.6525,0,0,0,.18,2,1.31,1.31,0,0,0,.76.83,5.9994,5.9994,0,0,0,1.76.29v.7c-1.22-.07-3-.11-5.32-.11-2.52,0-4.38,0-5.58.11v-.72a6,6,0,0,0,1.77-.28,1.19,1.19,0,0,0,.72-.83,6.5317,6.5317,0,0,0,.22-2V7.49a6.62,6.62,0,0,0-.22-2,1.18,1.18,0,0,0-.76-.83,6.17,6.17,0,0,0-1.72-.29V3.65c1.17.07,3,.11,5.58.11,2.32,0,4.1,0,5.32-.11Zm24.5,18.23a10.9265,10.9265,0,0,0,1.18,1.37,5.1975,5.1975,0,0,0,1.26.83v.72c-1.65-.07-3.49-.11-5.5-.11-1.71,0-3.34,0-4.9.11v-.72a6.5331,6.5331,0,0,0,1.65-.18c.31-.12.47-.29.47-.5a1.9992,1.9992,0,0,0-.4-.94L74.9,16.45a5.2915,5.2915,0,0,0-1.26-1.29,2.76,2.76,0,0,0-1.62-.51v7.09a7.6525,7.6525,0,0,0,.18,2,1.31,1.31,0,0,0,.76.83,5.9994,5.9994,0,0,0,1.76.29v.7c-1.22-.07-3-.11-5.33-.11-2.49,0-4.35,0-5.58.11v-.72a6.0015,6.0015,0,0,0,1.73-.28,1.19,1.19,0,0,0,.72-.83,6.5974,6.5974,0,0,0,.21-2V7.49a6.7014,6.7014,0,0,0-.21-2,1.18,1.18,0,0,0-.76-.83,6.18,6.18,0,0,0-1.73-.29V3.65c1.23.07,3.09.11,5.58.11,2.33,0,4.11,0,5.33-.11v.72a6.37,6.37,0,0,0-1.76.29,1.31,1.31,0,0,0-.76.83,7.7579,7.7579,0,0,0-.18,2v6.44a7.9392,7.9392,0,0,0,2.85-.79,12.1616,12.1616,0,0,0,2.77-2l2.19-2.23A3.77,3.77,0,0,0,81.2,6.42a1.64,1.64,0,0,0-.76-1.4,3.57,3.57,0,0,0-1.9-.66V3.67c1.73.07,3.57.11,5.54.11a27.6059,27.6059,0,0,0,3.21-.11v.69a7.8115,7.8115,0,0,0-2.42,1,15.1421,15.1421,0,0,0-2.48,1.95l-4.43,4.35Zm14.5-18.25a6.37,6.37,0,0,0-1.76.29,1.31,1.31,0,0,0-.76.83,7.7575,7.7575,0,0,0-.18,2V22.18a5.6006,5.6006,0,0,0,.18,1.65,1.2,1.2,0,0,0,.71.73,4.119,4.119,0,0,0,1.4.18h1.4a5.3,5.3,0,0,0,4-1.69,10.3106,10.3106,0,0,0,2.2-5.54h.82c-.07.79-.1,1.77-.1,2.95,0,1.49.08,3.19.25,5.11q-2.34-.11-7.89-.11-7.41,0-11.16.11v-.72a6.0006,6.0006,0,0,0,1.75-.29,1.19,1.19,0,0,0,.72-.83,6.5974,6.5974,0,0,0,.21-2V7.49a6.7014,6.7014,0,0,0-.21-2,1.18,1.18,0,0,0-.76-.83,6.181,6.181,0,0,0-1.73-.29V3.65c1.23.07,3.12.11,5.69.11,2.26,0,4,0,5.22-.11Zm29.09,16.49c0,1.37.08,2.93.25,4.68q-2.34-.11-7.89-.11-7.41,0-11.16.11v-.72a5.9987,5.9987,0,0,0,1.77-.29,1.19,1.19,0,0,0,.72-.83,6.6006,6.6006,0,0,0,.21-2V7.49a6.7014,6.7014,0,0,0-.21-2,1.2,1.2,0,0,0-.76-.83,6.2524,6.2524,0,0,0-1.73-.29V3.65q3.75.11,11.16.11,5,0,7.17-.11a41.4592,41.4592,0,0,0-.25,4.32,18.7023,18.7023,0,0,0,.1,2.23H128a8,8,0,0,0-1.88-4.39,5,5,0,0,0-3.67-1.33h-1.33a4.1193,4.1193,0,0,0-1.4.18,1.08,1.08,0,0,0-.69.65,4.54,4.54,0,0,0-.18,1.51v7.34h1.69a2.87,2.87,0,0,0,2.49-1.15,6.6807,6.6807,0,0,0,1.15-2.73h.83c-.08.81-.11,1.75-.11,2.8v1.48c0,1.08.07,2.5.21,4.25h-.82a5.5905,5.5905,0,0,0-1.15-2.77,3.11,3.11,0,0,0-2.6-1.12h-1.69v7.49a4.9412,4.9412,0,0,0,.18,1.55,1.22,1.22,0,0,0,.69.65,5.357,5.357,0,0,0,1.4.14h1.55a5.33,5.33,0,0,0,4-1.47,9.07,9.07,0,0,0,2.06-5h.81C129.47,18.96,129.44,19.82,129.44,20.88Zm20.32-17.1a27.3353,27.3353,0,0,0,2.77-.11v.72a4.52,4.52,0,0,0-1.48,1.23,19.6812,19.6812,0,0,0-1.73,2.62l-4.1,7.56v5.76a6.4992,6.4992,0,0,0,.25,2.12,1.53,1.53,0,0,0,.94.9,9,9,0,0,0,2.16.29v.69q-1.87-.11-6.19-.11t-6,.11v-.72a8.9992,8.9992,0,0,0,2.16-.28,1.53,1.53,0,0,0,.94-.9,6.4992,6.4992,0,0,0,.25-2.12v-3.9l-6.44-11.2a6.9979,6.9979,0,0,0-1.08-1.47,2,2,0,0,0-1-.54V3.67c1.49.12,2.9.18,4.25.18q2.835,0,6.33-.18v.76a5.4023,5.4023,0,0,0-1.69.21.75.75,0,0,0-.61.76,2.24,2.24,0,0,0,.4,1.12l4.89,8.53,2.31-4.21a9.28,9.28,0,0,0,1.36-4.14q0-2.2-2.7-2.31V3.67c1.44.07,2.79.11,4.01.11Z" /><path d="M48.24,43.39v3.27a5.6426,5.6426,0,0,1-1.47.74,5.3211,5.3211,0,0,1-1.75.26,5.4811,5.4811,0,0,1-2-.33,4.179,4.179,0,0,1-1.49-1,4.08,4.08,0,0,1-.94-1.49,5.3891,5.3891,0,0,1-.33-1.93,5.58,5.58,0,0,1,.32-1.93,4.13,4.13,0,0,1,.96-1.42,3.93,3.93,0,0,1,1.46-1,5.061,5.061,0,0,1,1.92-.34,5.694,5.694,0,0,1,1,.07,5.1558,5.1558,0,0,1,.84.21,4.2588,4.2588,0,0,1,.71.35,4.55,4.55,0,0,1,.64.47l-.18.28a.19.19,0,0,1-.2549.0851h0A.1942.1942,0,0,1,47.65,39.67a1,1,0,0,1-.28-.18,3.2667,3.2667,0,0,0-.5-.3,5.0011,5.0011,0,0,0-.79-.28,4.6275,4.6275,0,0,0-1.14-.12,4.4612,4.4612,0,0,0-1.63.29,3.37,3.37,0,0,0-1.23.82,3.6,3.6,0,0,0-.79,1.3,5.13,5.13,0,0,0-.27,1.72,5.29,5.29,0,0,0,.27,1.74,3.61,3.61,0,0,0,.8,1.31,3.46,3.46,0,0,0,1.27.83,4.7212,4.7212,0,0,0,1.69.28,4.4291,4.4291,0,0,0,.75-.05,4.274,4.274,0,0,0,.66-.14,4.8393,4.8393,0,0,0,.61-.23l.61-.32V43.9h-1.8a.17.17,0,0,1-.13-.05.13.13,0,0,1,0-.1v-.36Zm12.3-.43a5.6193,5.6193,0,0,1-.32,1.93,4.22,4.22,0,0,1-.9,1.49,4.1388,4.1388,0,0,1-1.39,1,5,5,0,0,1-3.56,0,4.1,4.1,0,0,1-1.38-1,4.22,4.22,0,0,1-.9-1.49,6,6,0,0,1,0-3.86,4.17,4.17,0,0,1,.9-1.48,3.8319,3.8319,0,0,1,1.38-1,4.83,4.83,0,0,1,3.56,0,3.75,3.75,0,0,1,1.39,1,4.17,4.17,0,0,1,.9,1.48A5.6193,5.6193,0,0,1,60.54,42.96Zm-.69,0a5.1913,5.1913,0,0,0-.27-1.73,3.6105,3.6105,0,0,0-.75-1.3,3.16,3.16,0,0,0-1.17-.81,3.91,3.91,0,0,0-1.51-.29,3.8615,3.8615,0,0,0-1.5.29,3.12,3.12,0,0,0-1.18.81,3.78,3.78,0,0,0-.76,1.3,5.89,5.89,0,0,0,0,3.46,3.88,3.88,0,0,0,.76,1.3,3.36,3.36,0,0,0,1.18.81,3.849,3.849,0,0,0,1.5.28,3.8993,3.8993,0,0,0,1.51-.28,3.41,3.41,0,0,0,1.17-.81,3.7009,3.7009,0,0,0,.75-1.3,5.19,5.19,0,0,0,.31-1.73Zm8.12,4.13a3.0008,3.0008,0,0,0,1.18-.23,2.53,2.53,0,0,0,.89-.65,2.68,2.68,0,0,0,.55-1,3.5992,3.5992,0,0,0,.2-1.2V38.36h.75v5.69a4.1086,4.1086,0,0,1-.24,1.42,3.4312,3.4312,0,0,1-.76,1.15,3.2118,3.2118,0,0,1-1.1.77,3.5414,3.5414,0,0,1-1.45.28,3.62,3.62,0,0,1-1.45-.28,3.31,3.31,0,0,1-1.1-.77,3.5987,3.5987,0,0,1-.69-1.15,4.1124,4.1124,0,0,1-.21-1.42V38.36h.67v5.68a3.998,3.998,0,0,0,.19,1.21,3.13,3.13,0,0,0,.55,1,2.6,2.6,0,0,0,.89.64,2.8405,2.8405,0,0,0,1.17.2Zm9.38-4.18a3.6419,3.6419,0,0,0,1.09-.15,2.35,2.35,0,0,0,.82-.42,1.73,1.73,0,0,0,.51-.66,2,2,0,0,0,.18-.86,1.73,1.73,0,0,0-.64-1.46,3.16,3.16,0,0,0-1.87-.47H75.8v4Zm4.12,4.65H80.9a.5018.5018,0,0,1-.19,0,.4583.4583,0,0,1-.14-.14l-3-3.73a.431.431,0,0,0-.03-.13.25.25,0,0,0-.12-.08H75.8v4.08h-.67v-9.2h2.35a3.79,3.79,0,0,1,2.37.62,2.14,2.14,0,0,1,.8,1.8,2.49,2.49,0,0,1-.19,1,2.2292,2.2292,0,0,1-.52.77,2.6912,2.6912,0,0,1-.83.53,3.8932,3.8932,0,0,1-1.08.28,1.3475,1.3475,0,0,1,.28.26Zm12.59-9.2v9.2h-.58v-8.2l-3.62,6.43a.29.29,0,0,1-.26.17h-.06a.28.28,0,0,1-.26-.17l-3.74-6.44v8.21h-.59v-9.2h.61a.22.22,0,0,1,.1.11l3.71,6.39a2.3,2.3,0,0,1,.17.39l.09-.2.09-.19,3.61-6.39c0-.06.07-.1.11-.11Zm10.19,8.65v.55H98.73v-9.2h5.51v.55H99.4v3.72h4v.54h-4v3.84Zm10-8.08h-3.23v8.63h-.67V38.93H107.1v-.57h7.15Z" /><line x1="0.54" y1="42.31" x2="32.54" y2="42.31" fill="none" stroke="#cdae62" stroke-width="0.5"/><line x1="121.54" y1="42.31" x2="153.54" y2="42.31" fill="none" stroke="#cdae62" stroke-width="0.5"/></svg>
