<svg id="short_logo" data-name="short logo" xmlns="http://www.w3.org/2000/svg" viewBox="0 0 93 26.5042"><path d="M42,23.0042a4.37,4.37,0,0,0,1.08,1.72,2,2,0,0,0,1.18.58v.7c-1.44-.07-3.26-.11-5.47-.11-2.45,0-4.27,0-5.47.11v-.72a6.42,6.42,0,0,0,1.94-.28,1,1,0,0,0,.58-1,5.1187,5.1187,0,0,0-.43-1.72l-2.16-5.88H25.4l-.94,2.49a12.0685,12.0685,0,0,0-1,4,2.07,2.07,0,0,0,.79,1.87,5,5,0,0,0,2.41.58v.69c-1.63-.07-3.12-.11-4.46-.11a19.9165,19.9165,0,0,0-2.74.11v-.72q1.77-.33,3.1-3.78l8.2-21.13h2.49Zm-9-7.35-3.57-9.72-3.74,9.72ZM58.24.0042a10,10,0,0,1,3.74.61,13,13,0,0,1,3,1.73,1.28,1.28,0,0,0,.72.32c.24,0,.43-.17.57-.5a5.83,5.83,0,0,0,.33-1.66h.83c-.1,1.63-.15,4.54-.15,8.71h-.83a17.6228,17.6228,0,0,0-.86-4,5.66,5.66,0,0,0-1.84-2.55,6,6,0,0,0-2.12-1.26,7.4206,7.4206,0,0,0-2.59-.47,5.64,5.64,0,0,0-4.21,1.73,10.2007,10.2007,0,0,0-2.45,4.5,22.4991,22.4991,0,0,0-.79,6.16q0,12.45,6.91,12.45a4.21,4.21,0,0,0,2.55-.72,1.69,1.69,0,0,0,.65-.75,2.49,2.49,0,0,0,.3-1.07v-3.57a7.4582,7.4582,0,0,0-.29-2.44,1.73,1.73,0,0,0-1-1.08,7.0025,7.0025,0,0,0-2.31-.36v-.72c1.48.07,3.54.11,6.16.1,2.13,0,3.74,0,4.82-.1v.72a2.34,2.34,0,0,0-1,.28,1.3,1.3,0,0,0-.47.83,12.138,12.138,0,0,0-.11,2v7.11H67a3.9982,3.9982,0,0,0-.32-1.4c-.17-.44-.41-.65-.72-.65a4.791,4.791,0,0,0-2,.75,11.89,11.89,0,0,1-5.9,1.8q-6.24,0-9.54-3.38t-3.31-9.58a14.7,14.7,0,0,1,1.65-7.09,12.2,12.2,0,0,1,4.68-4.75A13.27,13.27,0,0,1,58.24.0042Z" transform="translate(0 0)" /><line x1="75" y1="15.5042" x2="93" y2="15.5042" fill="none" stroke="#cdae62"/><line y1="15.5042" x2="18" y2="15.5042" fill="none" stroke="#cdae62"/></svg>
